Coordinates
version=1
nRows=38
nColumns=38
inDegrees=no

Units are S.I. units (second, meters, Newtons, ...)
If the header above contains a line with 'inDegrees', this indicates whether rotational values are in degrees (yes) or radians (no).

endheader
time	pelvis_tilt	pelvis_list	pelvis_rotation	pelvis_tx	pelvis_ty	pelvis_tz	hip_flexion_r	hip_adduction_r	hip_rotation_r	knee_angle_r	ankle_angle_r	subtalar_angle_r	mtp_angle_r	hip_flexion_l	hip_adduction_l	hip_rotation_l	knee_angle_l	ankle_angle_l	subtalar_angle_l	mtp_angle_l	lumbar_extension	lumbar_bending	lumbar_rotation	arm_flex_r	arm_add_r	arm_rot_r	elbow_flex_r	pro_sup_r	wrist_flex_r	wrist_dev_r	arm_flex_l	arm_add_l	arm_rot_l	elbow_flex_l	pro_sup_l	wrist_flex_l	wrist_dev_l
0.65	-2.58802	1.50498	-2.092	0.73811	0.0571855	1.04605	-0.133016	-0.174213	-0.0523389	0.844034	-0.633377	0	0	0.22716	-0.0367323	-0.234319	0.404522	-0.262836	0	0	-0.255252	-0.0628213	0.18055	0.122773	-0.502262	0.965531	0.672576	0.658333	0	0	-0.0158682	-0.382237	0.487004	0.798964	1.01722	0	0
0.66	-2.62412	1.4998	-2.0531	0.734559	0.0677396	1.04811	-0.120235	-0.179443	-0.0464502	0.874651	-0.680999	0	0	0.218598	-0.0389762	-0.243518	0.420903	-0.265503	0	0	-0.263658	-0.0616515	0.17796	0.123489	-0.500676	0.963728	0.668352	0.657502	0	0	-0.0107699	-0.381533	0.493224	0.795867	1.01425	0	0
0.67	-2.66571	1.4943	-2.00864	0.730932	0.0780589	1.0502	-0.106563	-0.182964	-0.0384157	0.907738	-0.698132	0	0	0.207451	-0.0402552	-0.253577	0.433852	-0.265876	0	0	-0.273095	-0.0593484	0.175117	0.124705	-0.500995	0.962753	0.666447	0.65619	0	0	-0.00583376	-0.380336	0.498576	0.793545	1.01227	0	0
0.68	-2.71304	1.48844	-1.95861	0.727291	0.0881336	1.05229	-0.0921504	-0.184329	-0.0284605	0.942089	-0.698132	0	0	0.193898	-0.0408301	-0.264936	0.44351	-0.264277	0	0	-0.283467	-0.0559217	0.172675	0.126172	-0.503282	0.962532	0.667002	0.654893	0	0	-0.000740107	-0.379049	0.50428	0.792113	1.01014	0	0
0.69	-2.76675	1.48195	-1.90243	0.723645	0.0979312	1.05443	-0.077826	-0.183187	-0.0170108	0.974856	-0.698132	0	0	0.178112	-0.040879	-0.276198	0.451111	-0.260155	0	0	-0.29492	-0.0512719	0.170681	0.127913	-0.507372	0.962234	0.669914	0.653397	0	0	0.00467223	-0.377465	0.509967	0.791303	1.00758	0	0
0.7	-2.82212	1.47494	-1.84491	0.720096	0.10747	1.05661	-0.0634409	-0.179341	-0.00386603	1.0057	-0.698132	0	0	0.1606	-0.0408165	-0.286851	0.457111	-0.254165	0	0	-0.30726	-0.0458154	0.168814	0.129984	-0.513081	0.961439	0.675512	0.651921	0	0	0.00997672	-0.376117	0.515104	0.791696	1.0047	0	0
0.71	-2.87594	1.46753	-1.78919	0.716647	0.116788	1.05886	-0.0493927	-0.172912	0.0104854	1.03381	-0.698132	0	0	0.141495	-0.0407951	-0.29652	0.46012	-0.248277	0	0	-0.320009	-0.0397566	0.167149	0.13224	-0.520039	0.960229	0.683056	0.650589	0	0	0.0152682	-0.374964	0.519721	0.792948	1.00187	0	0
0.72	-2.92428	1.46006	-1.73915	0.713306	0.125941	1.06113	-0.0355483	-0.16497	0.0245897	1.05904	-0.698132	0	0	0.121482	-0.0409484	-0.304945	0.45991	-0.243633	0	0	-0.33251	-0.0334945	0.165797	0.134603	-0.527457	0.958857	0.691281	0.649471	0	0	0.0205279	-0.373891	0.523752	0.794647	0.999323	0	0
0.73	-2.96642	1.45313	-1.69541	0.710064	0.134902	1.06335	-0.0208625	-0.156105	0.0384452	1.0822	-0.698132	0	0	0.101823	-0.0418553	-0.311776	0.457965	-0.240373	0	0	-0.344201	-0.0271854	0.164403	0.137253	-0.534787	0.957147	0.699541	0.647976	0	0	0.0257324	-0.372831	0.52717	0.796537	0.996671	0	0
0.74	-3.00188	1.44725	-1.65833	0.706919	0.143733	1.06544	-0.0045716	-0.14672	0.0521468	1.10357	-0.698132	0	0	0.0837333	-0.0434567	-0.316851	0.455172	-0.238797	0	0	-0.35419	-0.0211559	0.162564	0.140513	-0.541014	0.956325	0.70622	0.646461	0	0	0.0305375	-0.371723	0.529832	0.798088	0.99416	0	0
0.75	-3.03356	1.4415	-1.62554	0.703971	0.152523	1.06747	0.012033	-0.137342	0.0652693	1.12189	-0.698132	0	0	0.0658821	-0.0454257	-0.319392	0.450766	-0.238586	0	0	-0.363759	-0.015393	0.161181	0.143711	-0.54709	0.955786	0.713014	0.644562	0	0	0.0351264	-0.370691	0.532309	0.79967	0.991541	0	0
0.76	-3.06143	1.4366	-1.59667	0.701125	0.161368	1.06943	0.0292324	-0.12815	0.0777062	1.13622	-0.697821	0	0	0.0490536	-0.0477493	-0.320202	0.446021	-0.239374	0	0	-0.37183	-0.00983858	0.159947	0.146969	-0.55186	0.956163	0.71765	0.643088	0	0	0.0394583	-0.369255	0.534613	0.800134	0.989546	0	0
0.77	-3.08883	1.4315	-1.56751	0.69813	0.170149	1.07159	0.0462976	-0.11938	0.0887815	1.14872	-0.675486	0	0	0.0315816	-0.0499768	-0.319472	0.439654	-0.241377	0	0	-0.380387	-0.00353775	0.15822	0.150718	-0.556634	0.957054	0.721454	0.641516	0	0	0.0443217	-0.366686	0.536555	0.798979	0.987657	0	0
0.78	-3.10913	1.42796	-1.54391	0.695292	0.1789	1.07347	0.0631531	-0.110043	0.0997809	1.15845	-0.636095	0	0	0.0164264	-0.0517178	-0.3186	0.433848	-0.244013	0	0	-0.386871	0.00191939	0.155504	0.153584	-0.560074	0.956635	0.724522	0.638908	0	0	0.0491357	-0.365186	0.538884	0.798242	0.98559	0	0
0.79	-3.12378	1.42595	-1.52578	0.692757	0.187623	1.0751	0.0801812	-0.100115	0.111961	1.16449	-0.594993	0	0	0.0028494	-0.0531429	-0.320182	0.428969	-0.245351	0	0	-0.391122	0.0060954	0.152444	0.1565	-0.561641	0.956301	0.725722	0.636773	0	0	0.0535123	-0.364941	0.541194	0.798346	0.983521	0	0
0.8	-3.13864	1.42398	-1.50879	0.690333	0.1965	1.07682	0.0971084	-0.092167	0.120793	1.1669	-0.556063	0	0	-0.0130837	-0.0533796	-0.322126	0.420827	-0.245838	0	0	-0.394779	0.0100806	0.150687	0.159415	-0.563195	0.956857	0.72636	0.635381	0	0	0.0576568	-0.364009	0.543153	0.797566	0.982044	0	0
0.81	3.12953	1.42399	-1.49191	0.687973	0.205594	1.07832	0.115191	-0.0849875	0.127615	1.16487	-0.522259	0	0	-0.0279563	-0.0529215	-0.324367	0.411666	-0.245459	0	0	-0.395439	0.013985	0.149279	0.161605	-0.564	0.957589	0.72577	0.635032	0	0	0.0612348	-0.36251	0.544693	0.795624	0.980765	0	0
0.82	3.11558	1.42602	-1.4765	0.685663	0.214603	1.07953	0.134881	-0.0784455	0.133939	1.15901	-0.490121	0	0	-0.0406364	-0.0516891	-0.326358	0.402213	-0.244998	0	0	-0.393932	0.0175333	0.14829	0.163543	-0.564683	0.958288	0.724762	0.634833	0	0	0.0649515	-0.360491	0.546257	0.792845	0.979847	0	0
0.83	3.10029	1.42892	-1.45936	0.683335	0.22353	1.08055	0.155502	-0.0725156	0.138459	1.15023	-0.465808	0	0	-0.0516764	-0.0507638	-0.327422	0.393478	-0.244625	0	0	-0.391686	0.0214071	0.147012	0.165415	-0.565396	0.958553	0.72353	0.634243	0	0	0.0686667	-0.358225	0.547553	0.790021	0.979036	0	0
0.84	3.08477	1.43226	-1.44182	0.680993	0.232347	1.08137	0.176976	-0.0675422	0.141483	1.13958	-0.44756	0	0	-0.0615624	-0.0502775	-0.32722	0.385628	-0.244283	0	0	-0.389046	0.025379	0.145689	0.16705	-0.566502	0.958739	0.722773	0.633866	0	0	0.0724204	-0.355953	0.549092	0.787396	0.978645	0	0
0.85	3.06871	1.43631	-1.42386	0.678644	0.241038	1.08194	0.198905	-0.0635614	0.143173	1.1259	-0.433196	0	0	-0.0697143	-0.0498083	-0.326443	0.378412	-0.244145	0	0	-0.385942	0.0293537	0.144593	0.168754	-0.568216	0.959299	0.722405	0.633826	0	0	0.0763271	-0.353435	0.550649	0.784666	0.978761	0	0
0.86	3.05151	1.44043	-1.40481	0.676298	0.24965	1.08235	0.219988	-0.0600348	0.143828	1.10878	-0.420916	0	0	-0.0770851	-0.0492813	-0.325468	0.371341	-0.244315	0	0	-0.382769	0.0334033	0.143781	0.17039	-0.570321	0.96001	0.722295	0.634008	0	0	0.08029	-0.350641	0.551881	0.781958	0.978776	0	0
0.87	3.0342	1.44405	-1.38543	0.673934	0.258252	1.08266	0.238421	-0.0562173	0.142465	1.08786	-0.408481	0	0	-0.0848861	-0.0487456	-0.324548	0.364467	-0.244551	0	0	-0.379949	0.0376024	0.142832	0.171642	-0.573014	0.960151	0.723252	0.63352	0	0	0.0839916	-0.348028	0.552962	0.779884	0.978646	0	0
0.88	3.01809	1.44738	-1.36688	0.671558	0.266827	1.08283	0.256304	-0.0534323	0.140454	1.06611	-0.39666	0	0	-0.0929647	-0.0479174	-0.323057	0.358033	-0.244179	0	0	-0.377426	0.0416884	0.141559	0.17273	-0.576358	0.959968	0.725452	0.632561	0	0	0.0874454	-0.345922	0.5542	0.778778	0.978713	0	0
0.89	3.00398	1.45075	-1.35031	0.669217	0.27535	1.08282	0.273811	-0.0519479	0.137999	1.04335	-0.385267	0	0	-0.100881	-0.0466109	-0.321229	0.352352	-0.242751	0	0	-0.37502	0.0454137	0.140098	0.173532	-0.580207	0.959052	0.729003	0.630612	0	0	0.0906194	-0.344167	0.55528	0.778466	0.978353	0	0
0.9	2.99211	1.45412	-1.33602	0.666954	0.283798	1.08264	0.290707	-0.0515829	0.135033	1.01957	-0.37349	0	0	-0.108595	-0.0448216	-0.318678	0.347227	-0.240258	0	0	-0.372928	0.0487219	0.138794	0.17423	-0.584726	0.958136	0.733791	0.628055	0	0	0.0940952	-0.3426	0.556772	0.778438	0.977637	0	0
0.91	2.98336	1.45706	-1.32491	0.664794	0.292191	1.08233	0.30616	-0.0519578	0.131973	0.994358	-0.36359	0	0	-0.116276	-0.0429382	-0.316167	0.343154	-0.237476	0	0	-0.371515	0.0514521	0.137511	0.175203	-0.589154	0.957688	0.738509	0.625833	0	0	0.0976866	-0.341517	0.558759	0.778902	0.977023	0	0
0.92	2.97757	1.45971	-1.31683	0.662742	0.300558	1.08191	0.320173	-0.0528371	0.128261	0.968484	-0.353833	0	0	-0.12385	-0.0409987	-0.313568	0.339679	-0.234435	0	0	-0.370845	0.0537187	0.136154	0.176446	-0.593476	0.957437	0.743204	0.623898	0	0	0.101294	-0.340793	0.560957	0.779599	0.976338	0	0
0.93	2.9735	1.46216	-1.31047	0.660794	0.308935	1.08139	0.332837	-0.0539682	0.123857	0.942018	-0.343812	0	0	-0.131242	-0.0391765	-0.310601	0.336957	-0.231155	0	0	-0.370643	0.0557112	0.134947	0.177521	-0.59755	0.957386	0.747854	0.622145	0	0	0.105065	-0.34025	0.563734	0.780164	0.975781	0	0
0.94	2.97101	1.46492	-1.30566	0.658951	0.317362	1.08069	0.344998	-0.0556838	0.119158	0.91445	-0.333553	0	0	-0.137901	-0.0374037	-0.307498	0.335188	-0.227667	0	0	-0.370113	0.0573	0.133551	0.178001	-0.600995	0.95611	0.752196	0.619714	0	0	0.108485	-0.340047	0.566395	0.780922	0.97524	0	0
0.95	2.96956	1.46797	-1.30199	0.657202	0.325898	1.07985	0.35646	-0.05771	0.114186	0.885396	-0.32281	0	0	-0.144126	-0.0356262	-0.304643	0.334137	-0.22395	0	0	-0.369152	0.0585212	0.132041	0.178226	-0.604082	0.95431	0.756317	0.617626	0	0	0.111384	-0.3401	0.568647	0.781912	0.974827	0	0
0.96	2.97031	1.47141	-1.30078	0.655575	0.334564	1.07885	0.367349	-0.059808	0.109279	0.855492	-0.311692	0	0	-0.150139	-0.0336203	-0.301893	0.333186	-0.22015	0	0	-0.367615	0.0591293	0.130653	0.177832	-0.606847	0.951808	0.760581	0.615993	0	0	0.113757	-0.340359	0.570381	0.783192	0.974449	0	0
0.97	2.97225	1.47533	-1.3008	0.654038	0.343403	1.07772	0.377729	-0.0617535	0.103939	0.824945	-0.300731	0	0	-0.155818	-0.0315038	-0.299254	0.332125	-0.216513	0	0	-0.365104	0.0593173	0.129194	0.176849	-0.609234	0.948651	0.764614	0.615454	0	0	0.115549	-0.340668	0.571778	0.784428	0.973958	0	0
0.98	2.97426	1.47971	-1.30094	0.652576	0.352414	1.07644	0.387742	-0.0635297	0.0980962	0.793715	-0.289893	0	0	-0.16107	-0.0294882	-0.296931	0.331162	-0.21301	0	0	-0.361726	0.0592734	0.127697	0.175531	-0.611213	0.945633	0.768159	0.616657	0	0	0.11698	-0.34101	0.573259	0.785435	0.973335	0	0
0.99	2.9772	1.48459	-1.30223	0.651208	0.361565	1.07502	0.397608	-0.0652476	0.0917644	0.762058	-0.278185	0	0	-0.165731	-0.0275408	-0.295386	0.330808	-0.209553	0	0	-0.357658	0.0588697	0.126313	0.173423	-0.612311	0.941405	0.770828	0.617673	0	0	0.118131	-0.341421	0.574835	0.786158	0.972976	0	0
1	2.98071	1.48972	-1.3043	0.649932	0.37085	1.07348	0.406937	-0.0668197	0.0850221	0.729966	-0.264889	0	0	-0.17018	-0.0256785	-0.294454	0.33068	-0.206227	0	0	-0.353077	0.0582025	0.125244	0.170875	-0.612621	0.937053	0.772253	0.61894	0	0	0.119125	-0.341595	0.576487	0.786105	0.972833	0	0
1.01	2.98427	1.4948	-1.3066	0.648747	0.380269	1.07189	0.415201	-0.0677546	0.0772705	0.698044	-0.249313	0	0	-0.174592	-0.0240892	-0.293872	0.330717	-0.203108	0	0	-0.348361	0.0574264	0.124417	0.168228	-0.612067	0.932897	0.772187	0.620319	0	0	0.119882	-0.341439	0.578076	0.785038	0.97285	0	0
1.02	2.98863	1.49978	-1.30985	0.647625	0.389814	1.07026	0.422434	-0.0683618	0.0685054	0.667221	-0.231871	0	0	-0.179039	-0.0226711	-0.293803	0.3311	-0.20007	0	0	-0.343577	0.0565204	0.123733	0.165504	-0.610863	0.928643	0.770977	0.621244	0	0	0.120108	-0.340921	0.579152	0.783308	0.972931	0	0
